# xmcd
#
# Track frame offsets:
#	150
#	14161
#	28726
#	46749
#	60062
#	74483
#	92590
#	110244
#	126545
#	143278
#	158986
#
# Disc length: 2655 seconds
#
# Revision: 1
# Processed by: cddbd v1.5.2PL0 Copyright (c) Steve Scherf et al.
# Submitted via: EZCDAudioConverter 3.1.7.1
#
DISCID=950a5d0b
DTITLE=Imagine Dragons - Night Visions
DYEAR=2012
DGENRE=Pop/Rock
TTITLE0=Radioactive
TTITLE1=Tiptoe
TTITLE2=It's Time
TTITLE3=Demons
TTITLE4=On Top of the World
TTITLE5=Amsterdam
TTITLE6=Hear Me
TTITLE7=Every Night
TTITLE8=Bleeding Out
TTITLE9=Underdog
TTITLE10=Nothing Left to Say/Rocks
EXTD=
EXTT0=
EXTT1=
EXTT2=
EXTT3=
EXTT4=
EXTT5=
EXTT6=
EXTT7=
EXTT8=
EXTT9=
EXTT10=
PLAYORDER=
